<svg width="148" height="151" viewBox="0 0 148 151" fill="none" xmlns="http://www.w3.org/2000/svg">
<rect y="0.499908" width="148" height="148" rx="74" fill="#F2F5F8"/>
<path d="M124.335 49.5753V116.068C124.335 119.656 121.428 122.562 117.84 122.562H34.574C30.9908 122.562 28.0841 119.656 28.0841 116.068V49.5753C28.0841 45.9872 30.9908 43.0804 34.574 43.0804H117.84C121.428 43.0804 124.335 45.9872 124.335 49.5753Z" fill="#E1E4EA" stroke="#99A0AE" stroke-linecap="round" stroke-linejoin="round"/>
<path d="M45.6393 31.1485C46.0346 32.2802 46.2534 33.5242 46.2534 34.8302C46.2534 40.0539 42.7553 44.2886 38.4402 44.2886" stroke="#99A0AE" stroke-linecap="round" stroke-linejoin="round"/>
<path d="M74.4793 31.1485C74.8747 32.2802 75.0934 33.5242 75.0934 34.8302C75.0934 40.0539 71.5954 44.2886 67.2802 44.2886" stroke="#99A0AE" stroke-linecap="round" stroke-linejoin="round"/>
<path d="M103.319 31.1485C103.714 32.2802 103.933 33.5242 103.933 34.8302C103.933 40.0539 100.435 44.2886 96.1195 44.2886" stroke="#99A0AE" stroke-linecap="round" stroke-linejoin="round"/>
<path d="M115.325 41.254V107.746C115.325 111.334 112.419 114.241 108.83 114.241H25.5643C21.9812 114.241 19.0743 111.334 19.0743 107.746V41.254C19.0743 37.6659 21.981 34.7592 25.5643 34.7592H108.83C112.419 34.7592 115.325 37.6659 115.325 41.254Z" fill="white" stroke="#99A0AE" stroke-linecap="round" stroke-linejoin="round"/>
<path d="M115.325 41.254V52.3908H19.0743V41.254C19.0743 37.6659 21.981 34.7592 25.5643 34.7592H108.83C112.419 34.7592 115.325 37.6659 115.325 41.254Z" fill="#CACFD8" stroke="#99A0AE" stroke-linecap="round" stroke-linejoin="round"/>
<path d="M38.4407 44.2894C34.1256 44.2894 30.6275 40.0547 30.6275 34.8309C30.6275 29.6072 34.1255 25.3727 38.4407 25.3727C41.6769 25.3727 44.4537 27.7546 45.6398 31.1494" stroke="#99A0AE" stroke-linecap="round" stroke-linejoin="round"/>
<path d="M67.2806 44.2882C62.9656 44.2882 59.4675 40.0535 59.4675 34.8297C59.4675 29.606 62.9655 25.3713 67.2806 25.3713C70.5169 25.3713 73.2937 27.7533 74.4797 31.1481" stroke="#99A0AE" stroke-linecap="round" stroke-linejoin="round"/>
<path d="M96.12 44.2882C91.805 44.2882 88.3068 40.0535 88.3068 34.8297C88.3068 29.606 91.8048 25.3713 96.12 25.3713C99.3563 25.3713 102.133 27.7533 103.319 31.1481" stroke="#99A0AE" stroke-linecap="round" stroke-linejoin="round"/>
<path d="M45.6595 57.8213H31.0602C29.8874 57.8213 28.9366 58.7721 28.9366 59.9449V68.5454C28.9366 69.7182 29.8874 70.669 31.0602 70.669H45.6595C46.8324 70.669 47.7832 69.7182 47.7832 68.5454V59.9449C47.7832 58.7721 46.8324 57.8213 45.6595 57.8213Z" fill="#E1E4EA"/>
<path d="M103.339 57.8213H88.7396C87.5668 57.8213 86.616 58.7721 86.616 59.9449V68.5454C86.616 69.7182 87.5668 70.669 88.7396 70.669H103.339C104.512 70.669 105.463 69.7182 105.463 68.5454V59.9449C105.463 58.7721 104.512 57.8213 103.339 57.8213Z" fill="#E1E4EA"/>
<path d="M74.4988 76.3975H59.8996C58.7267 76.3975 57.7759 77.3483 57.7759 78.5212V87.1216C57.7759 88.2945 58.7267 89.2453 59.8996 89.2453H74.4988C75.6717 89.2453 76.6225 88.2945 76.6225 87.1216V78.5212C76.6225 77.3483 75.6717 76.3975 74.4988 76.3975Z" fill="#E1E4EA"/>
<path d="M74.4988 94.9752H59.8996C58.7267 94.9752 57.7759 95.926 57.7759 97.0988V105.699C57.7759 106.872 58.7267 107.823 59.8996 107.823H74.4988C75.6717 107.823 76.6225 106.872 76.6225 105.699V97.0988C76.6225 95.926 75.6717 94.9752 74.4988 94.9752Z" fill="#E1E4EA"/>
<path d="M103.339 94.9752H88.7396C87.5668 94.9752 86.616 95.926 86.616 97.0988V105.699C86.616 106.872 87.5668 107.823 88.7396 107.823H103.339C104.512 107.823 105.463 106.872 105.463 105.699V97.0988C105.463 95.926 104.512 94.9752 103.339 94.9752Z" fill="#E1E4EA"/>
<path d="M45.535 94.9752H30.9358C29.7629 94.9752 28.8121 95.926 28.8121 97.0988V105.699C28.8121 106.872 29.7629 107.823 30.9358 107.823H45.535C46.7079 107.823 47.6587 106.872 47.6587 105.699V97.0988C47.6587 95.926 46.7079 94.9752 45.535 94.9752Z" fill="#E1E4EA"/>
<path d="M34.9706 98.1343L41.5 104.664" stroke="#99A0AE" stroke-linecap="round" stroke-linejoin="round"/>
<path d="M41.5 98.1343L34.9706 104.664" stroke="#99A0AE" stroke-linecap="round" stroke-linejoin="round"/>
<path d="M45.535 76.3975H30.9358C29.7629 76.3975 28.8121 77.3483 28.8121 78.5212V87.1216C28.8121 88.2945 29.7629 89.2453 30.9358 89.2453H45.535C46.7079 89.2453 47.6587 88.2945 47.6587 87.1216V78.5212C47.6587 77.3483 46.7079 76.3975 45.535 76.3975Z" fill="#E1E4EA"/>
<path d="M34.9706 79.5568L41.5 86.0861" stroke="#99A0AE" stroke-linecap="round" stroke-linejoin="round"/>
<path d="M41.5 79.5568L34.9706 86.0861" stroke="#99A0AE" stroke-linecap="round" stroke-linejoin="round"/>
<path d="M74.4988 57.8213H59.8996C58.7267 57.8213 57.7759 58.7721 57.7759 59.9449V68.5454C57.7759 69.7182 58.7267 70.669 59.8996 70.669H74.4988C75.6717 70.669 76.6225 69.7182 76.6225 68.5454V59.9449C76.6225 58.7721 75.6717 57.8213 74.4988 57.8213Z" fill="#E1E4EA"/>
<path d="M63.9348 60.9805L70.4642 67.5099" stroke="#99A0AE" stroke-linecap="round" stroke-linejoin="round"/>
<path d="M70.4642 60.9805L63.9348 67.5099" stroke="#99A0AE" stroke-linecap="round" stroke-linejoin="round"/>
<path d="M103.339 76.3975H88.7398C87.5669 76.3975 86.6161 77.3483 86.6161 78.5212V87.1216C86.6161 88.2945 87.5669 89.2453 88.7398 89.2453H103.339C104.512 89.2453 105.463 88.2945 105.463 87.1216V78.5212C105.463 77.3483 104.512 76.3975 103.339 76.3975Z" fill="#E1E4EA"/>
<path d="M63.9348 79.5568L70.4642 86.0861" stroke="#99A0AE" stroke-linecap="round" stroke-linejoin="round"/>
<path d="M70.4642 79.5568L63.9348 86.0861" stroke="#99A0AE" stroke-linecap="round" stroke-linejoin="round"/>
<path d="M117.316 129.246C131.323 129.246 142.678 117.891 142.678 103.884C142.678 89.8774 131.323 78.5225 117.316 78.5225C103.309 78.5225 91.9544 89.8774 91.9544 103.884C91.9544 117.891 103.309 129.246 117.316 129.246Z" fill="#E1E4EA" stroke="#99A0AE" stroke-linecap="round" stroke-linejoin="round"/>
<path d="M117.316 123.996C128.424 123.996 137.428 114.991 137.428 103.883C137.428 92.7757 128.424 83.7711 117.316 83.7711C106.208 83.7711 97.2037 92.7757 97.2037 103.883C97.2037 114.991 106.208 123.996 117.316 123.996Z" fill="white" stroke="#99A0AE" stroke-linecap="round" stroke-linejoin="round"/>
<path d="M108.678 0.500009C108.678 0.500009 103.305 6.80236 109.568 12.1775C103.305 6.80225 97.8905 13.0678 97.8905 13.0678C97.8905 13.0678 103.263 6.76548 97 1.39027C103.263 6.76548 108.678 0.500009 108.678 0.500009Z" fill="white" stroke="#99A0AE" stroke-linecap="round" stroke-linejoin="round"/>
<path d="M49.5411 141.154C49.5411 141.154 41.286 141.812 41.9135 150.041C41.286 141.812 33.0267 142.414 33.0267 142.414C33.0267 142.414 41.2818 141.756 40.6543 133.527C41.2818 141.756 49.5411 141.154 49.5411 141.154Z" fill="white" stroke="#99A0AE" stroke-linecap="round" stroke-linejoin="round"/>
<rect x="107" y="93.4999" width="19" height="19" rx="6.33333" fill="#99A0AE"/>
<path d="M115.708 102.208V97.4583H117.292V102.208H122.042V103.792H117.292V108.542H115.708V103.792H110.958V102.208H115.708Z" fill="white"/>
</svg>
